<?xml version="1.0" encoding="utf-8"?>
<!-- Generator: Adobe Illustrator 19.2.1, SVG Export Plug-In . SVG Version: 6.00 Build 0)  -->
<svg version="1.1" id="Layer_1" xmlns="http://www.w3.org/2000/svg" xmlns:xlink="http://www.w3.org/1999/xlink" x="0px" y="0px"
	 viewBox="0 0 1000 1000" style="enable-background:new 0 0 1000 1000;" xml:space="preserve">
<style type="text/css">
	.st0{fill:#F08520;}
</style>
<g>
	<g>
		<path class="st0" d="M96.2,922.3c4.6-2,9.1-4.7,13.8-6c19.4-5.5,38.8-10.9,58.4-15.7c24.6-6,49.5-11.2,74.2-16.7
			c4.1-0.9,8.3-1.8,12.5-2.1c31.4-2.3,60.2-12.8,88.2-26.4c14-6.8,28.2-13.3,42.3-20.1c7.6-3.7,8-7.3,1.8-13
			c-1.9-1.7-4.2-3.1-6.2-4.7c-22.1-16.6-44.2-33.2-66.3-49.8c-51.1-38.4-82-89.5-97.1-151.1c-20.5-83.8-12.2-163.9,29.2-240.1
			c30.9-56.9,67.4-109.8,113.8-155.3c9.5-9.3,19.8-17.8,29.4-27.1c9.8-9.5,19.1-19.5,28.9-29c4.4-4.3,4.7-8.9,3-14.3
			c-3.4-10.5-6.5-21.1-10.2-31.6c-11.3-32.3,15-74.4,48-80.2c23.7-4.1,46-0.4,66.9,11.1c50.5,27.6,71.8,95,44.1,146.2
			c-8.9,16.5-19.8,31.5-34,43.6c-7.1,6.1-15.2,11.3-23.5,15.5c-11,5.6-22.6,5.3-33.7-0.7c-2.7-1.4-5.7-2.2-8.7-3.4
			c-9.1,36.8,44.3,128.8,86,149.4c0.7-0.9,1.7-1.7,2.1-2.8c10.3-26.5,31.1-40,57.8-45.7c22.7-4.9,45.2-3.8,67.4,3.1
			c20.2,6.2,33.6,18.4,36.2,40.1c2.7,22.4-4.5,41.1-23.5,54.2c-6.7,4.6-14,8.3-21,12.4c-11,6.5-11.8,7.3-6.5,19.3
			c6.7,15.1,13.9,30.1,22.2,44.4c16.5,28.1,26.9,58.4,26.8,90.7c-0.2,50.5-17.9,95.4-51.2,133.8c-2.7,3.2-5.9,6.1-9.4,8.5
			c-16.9,11.9-31,26.7-44.6,42.1c-3.6,4.2-7.7,7.9-11.3,12.2c-3.9,4.7-3.6,8.7,0.9,12.7c1.9,1.7,4.1,3.3,6.4,4.3
			c12.1,5.5,24.3,10.8,36.4,16.3c13.9,6.3,27.5,13.3,41.6,19.1c20.8,8.6,42.5,13.5,65,16.5c22.8,3.1,45.2,9.1,67.7,14.1
			c22.8,5.2,45.6,10.6,68.3,16.3c7.6,1.9,15.7,3.7,22.9,10.3c-2.8,1.3-4.6,2.7-6.5,2.9c-6.8,0.7-13.6,1.3-20.4,1.4
			c-89.8,0.7-179.6,1.1-269.4,2c-31.9,0.3-63.7,2.1-95.5,2.7c-12,0.2-24.1-0.7-36-2c-19.4-2.1-38.8-1.4-58.3-0.8
			c-24.7,0.7-49.4-0.3-74.2-0.5c-78.1-0.5-156.2-0.9-234.2-1.5c-6.7,0-13.3-0.9-20-1.4C96.7,924.6,96.4,923.4,96.2,922.3z
			 M389.7,731.7c2.1-3.8,3.9-6.9,5.4-10c14.5-30.1,21.8-61.9,21.1-95.3c-0.2-9-1.8-18-3.5-26.9c-2.2-11.8-9.4-19.7-20.8-23.7
			c-10.8-3.7-21.5-7.5-32.3-10.8c-28.6-9-54.8-22.1-76.6-43.2c-0.8-0.7-2.2-0.8-3.7-1.4c-0.6,2.1-1.2,3.6-1.4,5.1
			c-4.2,24.3-2.7,48.5,0,72.9c3.9,35,18.6,63.9,44.9,87.1c18.4,16.2,38.1,30.4,59.4,42.5C384.1,729.2,386.2,730.1,389.7,731.7z
			 M462.8,400.4c-17.1-21.4-33.4-42.1-50-62.5c-4.1-5-9.1-9.3-14-13.5c-8.3-7.1-13.8-7.4-22.8-1.1c-7.7,5.4-15.2,11.2-22.4,17.2
			c-10.5,8.8-17.6,19.9-21.6,33c-2.9,9.6-5.8,19.2-8.6,28.9c-0.5,1.8-0.5,3.9-0.2,5.8c4.1,24.1,11.1,46.8,30,64
			c12.9,11.8,27.6,20.6,44.2,26c1.8,0.6,3.7,1.3,5.6,1.5c5.3,0.6,7.8-1.7,7.8-7.2c0-4.5-0.6-9.1-0.4-13.6
			c1.3-33.5,15.1-59.4,45.8-74.9C458.1,403.1,460,401.9,462.8,400.4z M542.7,739c3.5-1.7,5.8-2.8,8-4
			c41.9-22.5,63.5-60.9,80.5-102.8c0.6-1.5,0.1-3.5,0.1-5.1c-1.4-0.3-2-0.6-2.6-0.5c-25.8,3.1-51.7,3.6-77.7,1.3
			c-11.7-1-18.7,5.9-19.5,17.4c-1.5,20.8-0.5,41.6,2.5,62.2C535.6,717.9,537.3,728.5,542.7,739z M615.8,535.6
			c-5.4-18.8-44.1-58.1-64.4-66c-0.2,2.6-0.6,5.1-0.7,7.6c-0.5,12.9-2.9,25.1-10.6,35.8c-2,2.8-3.2,6.4-3.9,9.8
			c-1.3,5.9,0.1,8.2,5.9,10.4c19.4,7.6,39.4,10.5,60.1,6.3C606.5,538.6,610.8,537.1,615.8,535.6z"/>
	</g>
</g>
</svg>
