<?xml version="1.0" encoding="utf-8"?>
<!-- Generator: Adobe Illustrator 19.2.1, SVG Export Plug-In . SVG Version: 6.00 Build 0)  -->
<svg version="1.1" id="Layer_1" xmlns="http://www.w3.org/2000/svg" xmlns:xlink="http://www.w3.org/1999/xlink" x="0px" y="0px"
	 viewBox="0 0 2000 2000" style="enable-background:new 0 0 2000 2000;" xml:space="preserve">
<style type="text/css">
	.st0{fill:#2C180F;stroke:#2C180F;stroke-miterlimit:10;}
</style>
<g>
	<g>
		<path class="st0" d="M574.6,889.3c3.4-4.4,7.9-5.4,12-6.9c18.7-6.7,38.1-11,57.4-15.6c26.1-6.2,52.3-12.3,78.6-17.7
			c5.4-1.1,10.8-1.2,16.2-1.9c26.6-3.4,51.6-12,75.7-23.6c15-7.2,30-14.3,45-21.5c8-3.9,8.4-7.3,1.7-13.2c-1.9-1.7-4.1-3.1-6.2-4.5
			c-22.5-15.9-44.2-32.8-66-49.6c-47.5-36.5-77.4-84-92.7-141.8c-17.3-65.3-16.8-129.7,5.3-193.6c12.5-36.2,32.2-68.9,52.8-101
			c30.8-47.9,67.2-91.1,110.9-127.9c10.1-8.5,18.8-18.3,27.7-28c3.6-4,4.8-7.9,2.9-13.1c-3.1-8.7-5-17.9-8.6-26.4
			c-15.5-36.2,13.5-89.2,65.9-86c46.9,2.9,84.9,33.6,97.4,80.3c6.9,25.9,4.4,50.7-7.6,74.6c-8.6,17-20.1,31.9-34.2,44.7
			c-6.9,6.3-14.5,11.5-23.2,15.2c-11.2,4.8-22.3,4.8-33.3-0.9c-2.7-1.4-5.3-4.6-8.6-2.1c-3.1,2.4-1.1,6-0.8,9
			c2,23,9.2,44.6,20.6,64.4c12,20.8,27,39.7,44.1,56.7c6.1,6.1,12.7,11.6,19.8,16c3.2-0.9,3.5-3.3,4.3-5.3
			c8.2-19.5,22.7-32.1,42.5-38.9c26.3-9.1,52.7-9.1,79.2-1c19.6,6,33.2,17.6,35.9,39.1c2.8,23-4.5,41.6-24.2,54.6
			c-6.7,4.4-13.8,8-20.7,12.1c-8.9,5.2-9.4,6.5-6,16.2c5.6,16.1,13.6,31,22.3,45.6c19,31.8,29.6,66.3,26.3,103.4
			c-3.9,43.8-19.9,83.1-49,116.6c-3.3,3.8-7.2,7.3-11.3,10.3c-14.4,10.3-26.8,22.7-38.5,35.9c-4.9,5.5-10.1,10.7-14.9,16.3
			c-4.5,5.2-4.1,8.6,1.1,13.1c2.7,2.3,5.6,4.3,9.1,5.2c4.1,1,7.6,3.3,11.3,5c35.4,16.1,69.3,36.8,108.6,42.2
			c33.4,4.6,66,12.4,98.7,19.9c20.6,4.7,41.3,8.6,61.4,15.4c3.9,1.3,8,2.5,11.3,5.1c1.9,1.5,2,3.4-0.5,4.3c-2.1,0.8-4.3,1.4-6.5,1.5
			c-4.1,0.4-8.3,0.5-12.5,0.5c-91.5,0.7-183,1.3-274.6,1.9c-7.4,0-14.7,0.9-22,1.5c-31.6,2.3-63.3,3.7-94.9,0.3
			c-21.7-2.3-43.4-1.7-65.1-1.8c-103-0.4-206.1-1.2-309.1-2C584.6,892.2,579.6,893,574.6,889.3z M750.9,530.2
			c-0.2,20.9,2.5,39.9,6.4,58.7c3.3,15.9,9.9,30.4,19.9,43.2c22,28.3,51,48.1,81.6,65.9c3.6,2.1,5.9,1.2,7.6-2.5c0.9-2,2.1-4,3-6
			c13.3-28.2,20.5-57.7,20.3-89c-0.1-11.9-0.4-23.6-4.7-34.9c-2.9-7.7-7.4-13.1-14.7-16.7c-11-5.4-22.7-8.6-34.3-12.1
			c-28.3-8.4-54.1-21.4-75.9-41.6c-3.9-3.7-6-3.1-6.7,2.2C751.9,508.8,750.3,520.2,750.9,530.2z M935.5,373.1
			c-17.1-18.3-30.7-38.9-46.6-57.7c-5.2-6.1-10.9-11.7-17.2-16.7c-6.7-5.3-13.2-5.9-20.3-1.2c-6.9,4.6-13.5,9.7-20,14.8
			c-13.6,10.6-22.1,24.5-26.5,41.2c-1.9,7.4-2.7,15.1-6.4,22c-1.1,2.1-0.7,4.3-0.4,6.6c5.4,40.9,26.6,69.8,65.1,85.5
			c3.8,1.6,7.8,3.1,11.8,3.9c7.3,1.4,9.5-0.6,9.2-7.8c-0.1-3.5-0.6-7-0.5-10.5c1.2-33.6,14.6-59.8,45.5-75.4
			C931.3,376.7,933.5,376.1,935.5,373.1z M1020.1,598.2c-8.4,0.7-17.7,3.8-17.2,17.2c0.4,11.5-0.5,23.1,0.1,34.5
			c0.9,16.9,2.8,33.8,7.9,50.1c2.4,7.6,3.1,7.9,9.9,4.1c11-6,21.3-13,30.4-21.6c23.4-22,37.5-49.9,49.6-79c0.1-0.3,0.2-0.6,0.3-0.9
			c1.6-5.8,0.9-6.9-5.4-5.8c-7,1.3-14,1.7-21,1.8C1057,599,1039.1,599.7,1020.1,598.2z M1054.3,512.8c8.5-0.8,17.2-0.4,25.5-3.3
			c7-2.5,7.7-4.1,3.6-10.2c-14.7-21.6-32.6-40-54.4-54.5c-5.8-3.8-7-3.2-7,3.6c0.1,13.4-2.6,25.9-10.7,37c-2.3,3.2-3.2,6.9-3.7,10.8
			c-0.5,4,0.7,7,4.7,8.2C1026,508.8,1039.5,514.1,1054.3,512.8z"/>
		<path class="st0" d="M938.5,1692.3c1.6,3.3,4.5,3.5,6.7,4.4c22.8,9.5,38.5,25.5,46.7,49.1c5.9,17,9.2,34.6,11,52.4
			c2.9,28.3,3.4,56.7,3.4,85.1c0,26.5,1.6,52.9,7.1,79c0.4,1.8,0.5,3.8,0.4,5.7c-0.3,6.7-2.7,9.1-9.3,9.6c-2.2,0.2-4.5,0.1-6.7,0.1
			c-24-0.2-48-0.4-72-0.6c-7.9-0.1-11.1-2.3-12.6-10c-1.3-6.5-1.9-13.3-2.3-19.9c-2.1-37.7-2.4-75.4-2.9-113.1
			c-0.2-22-2-44-9.2-65.1c-2.8-8.3-6.8-15.7-13.5-21.8c-6-5.5-13.2-6-20.6-6.1c-3.5,0-5,2.6-5.9,5.4c-1.4,4.6-1.9,9.3-1.9,14.2
			c0.1,51.5,0.1,103,0,154.6c0,14.7-0.3,29.4-0.6,44.1c-0.3,12.1-3.2,15.2-15.3,15.8c-15,0.8-29.9,2.7-45,1.9c-7-0.4-14-0.9-21-1.4
			c-5-0.3-7.4-3.7-8.4-8c-1.1-5-1.9-10-1.9-15.1c0.1-181.8,0.1-363.6,0.1-545.3c0-2.9-0.2-5.7,0.7-8.5c1.5-5.2,4.5-8.4,10-8.8
			c3.2-0.2,6.4-0.6,9.6-0.6c37.1,0,74.2-0.3,111.4,0.1c24.1,0.2,46.9,6,67.5,18.7c22.1,13.6,33.7,32.8,33.3,59.5
			c-0.7,46.4,0.3,92.8-1.1,139.2c-1.1,37.7-17.7,66.7-53.6,82.6c-0.9,0.4-1.7,0.9-2.5,1.4C939.6,1691,939.2,1691.5,938.5,1692.3z
			 M860.8,1556.5c0,20.4,0.1,40.9,0,61.3c0,4.5,0.4,8.9,2.1,13.1c1.1,2.7,2.7,5.1,5.6,6.3c11.1,4.5,25.8-1.5,30.8-12.7
			c3-6.7,4.6-13.9,5.7-21.2c4.3-29.1,4.1-58.5,3.9-87.8c0-5.5-1.1-10.8-2.7-16c-5.3-17.7-23.4-26.1-40.5-18.9c-2.4,1-3.2,2.9-4,5
			c-1.2,3.1-0.8,6.3-0.8,9.5C860.8,1515.6,860.8,1536,860.8,1556.5z"/>
		<path class="st0" d="M1262.7,1801.6c-0.3,4.1-0.8,8.1-1,12.1c-2,41.6-1.5,83.1-1.2,124.7c0.1,7.9,1.3,15.9,1.1,23.9
			c-0.3,9.7-3.2,12.7-12.6,12.8c-20.8,0.1-41.6,0.1-62.4,0c-10.2,0-11.5-1.5-13.7-11.9c-0.8-3.5-0.8-7-0.8-10.5
			c0-180.5,0-361.1,0-541.6c0-1.6-0.1-3.2,0-4.8c0.6-11.7,2-12.4,13.5-13.3c14.1-1.1,28.1-1.1,42.1-1.1c9.9,0,19.7,1.7,29.6,1.4
			c5.5-0.2,7.7,2.5,8,8.5c0.3,6.1,0.5,12.2,0,18.2c-1.9,23.6-1.1,47.3-2,70.9c-0.7,19.5-1.1,39-1.1,58.5c0,3.1-0.7,6.3,1.3,9.2
			c3.3-0.5,3.4-2.9,3.9-4.9c12.2-47.6,24.5-95.3,36.7-143c0.2-0.9,0.4-1.9,0.6-2.8c3.6-14.2,4.4-14.7,18.7-14.7
			c24.6,0,49.3-0.1,73.9,0c12.1,0,15.9,6.1,10.8,17.4c-29.8,65.5-57.4,131.8-84.2,198.6c-3.9,9.8-7.3,19.8-11.2,29.6
			c-2.1,5.3-1.9,10.2-0.1,15.7c28.4,83.5,56.9,167,86.4,250.1c6.3,17.8,12.5,35.6,18.7,53.4c6.4,18.4-0.2,17.4-12.3,17.3
			c-27.2-0.3-54.4-0.1-81.6-0.1c-12.1,0-14.4-1.5-17.5-13.1c-8.6-32.1-16.9-64.3-25.3-96.4c-5.1-19.5-10-39-15-58.5
			C1265.6,1805,1266.1,1802.4,1262.7,1801.6z"/>
		<path class="st0" d="M1687.2,1977.6c-10.7-1.1-22.5-0.9-34.3-0.4c-7.4,0.3-11.3-2.7-13.6-9.2c-4.5-12.3-7.6-25.1-10.2-37.9
			c-3.8-18.8-6.9-37.7-10.2-56.5c-1.2-6.9-2.1-7.8-9.4-7.9c-7.7-0.1-15.4-0.1-23,0c-7.7,0.1-8.5,0.7-9.9,8.6c-3.8,22-7.4,44-11.2,66
			c-1.6,9.1-3.3,18.2-5.3,27.2s-3.4,10.1-12.2,10.1c-27.2,0.1-54.4,0-81.6,0c-1.3,0-2.6,0.1-3.8-0.1c-6.7-0.8-8.6-3.4-7.5-10.3
			c5-30.2,9.9-60.5,14.9-90.7c6.9-41.5,13.8-83.1,20.8-124.6c7.8-46.6,15.3-93.2,23.5-139.7c9.5-54.1,19-108.1,30.2-161.9
			c3.4-16.3,6.8-32.5,11.4-48.5c2.9-10.3,4.2-11.7,14.3-11.8c20.2-0.3,40.3-0.3,60.5,0c9.4,0.1,10.7,1.3,13.2,10.5
			c6.7,24.7,11.2,49.8,15.6,75c8.4,48.1,16.7,96.2,24.6,144.4c7.1,43.4,13.4,87,20,130.5c6.7,43.5,13.5,87,20.1,130.5
			c3.2,20.8,6.1,41.7,8.8,62.5c1.3,9.5,0.4,19.2,0.6,28.8c0.1,4.2-1.7,5.6-5.8,5.5C1714.6,1977.5,1701.5,1977.6,1687.2,1977.6z
			 M1599.2,1694.8c-3.7,4.3-4.2,8-4.9,11.7c-3.9,19-5.7,38.3-8,57.6c-1.5,12.7-0.5,13.7,12.7,13.8c2.2,0,4.5-0.2,6.7-0.4
			c4.2-0.3,6.4-2.1,5.6-6.8c-0.9-5-1.3-10.1-2-15.1C1606.5,1735.8,1604.2,1715.9,1599.2,1694.8z"/>
		<path class="st0" d="M448,1977.6c-11.6-1.2-24.4-0.8-37.2-0.5c-5.8,0.1-8.9-2-11-7.1c-4.4-10.7-7.2-21.8-9.7-33.1
			c-4.6-20.9-8.5-41.9-11.7-63.1c-1.1-7.1-2.1-8.1-9.2-8.3c-8-0.2-16-0.2-24,0c-7,0.2-7.9,1-9.2,8.4c-4,23.3-7.9,46.6-11.8,69.8
			c-1.3,7.6-2.6,15.1-4,22.6c-1.7,8.9-4.4,11.1-13.6,11.1c-26.2,0-52.5,0-78.7,0c-9.6,0-9.2-0.1-9.8-9.4c-1.5-23,3.7-45.1,7.3-67.5
			c7.2-44.1,14.7-88.1,22.1-132.2c9.2-55.1,18.3-110.2,27.8-165.2c8.7-50.3,17.7-100.6,28.1-150.6c3.6-17.5,7-35.1,12.5-52.1
			c3.2-9.7,4-10.3,14.2-10.6c9.3-0.2,18.6-0.1,27.8-0.1c10.2,0,20.5-0.2,30.7,0.1c11.1,0.3,11.5,0.5,14.6,11.1
			c5.9,20.3,9.5,41,13.3,61.8c9.9,53.3,18.8,106.9,27.2,160.4c10.1,64.3,20.2,128.6,30.1,192.9c7.7,50.5,15.1,101,22.6,151.4
			c1.3,8.6,0.2,9.9-9,10C474.8,1977.7,462,1977.6,448,1977.6z M358.4,1694.7c-3.6,5-4.1,9.4-4.9,13.7c-3.5,17.5-5.1,35.2-7.4,52.9
			c-2.1,15.9-0.1,17.8,16.3,16.6c0.3,0,0.6,0,1,0c6.9-0.7,8.2-2,7.3-9.2c-1.2-10.4-2.5-20.9-4.2-31.2
			C364.1,1723.7,363,1709.7,358.4,1694.7z"/>
		<path class="st0" d="M526,1682c0-90.3,0-180.5,0-270.8c0-2.6-0.1-5.1,0-7.7c0.4-7.7,2.7-10,10.6-10.4c19.8-0.9,39.6-2.1,59.4-1.2
			c44.8,2.1,89.5,0.8,134.3,1.2c1.9,0,3.8,0.1,5.7,0.3c7.7,1.1,9.3,2.8,9.4,10.5c0.2,13.8,0,27.5,0.1,41.3c0,8.6,0.1,17.3,0,25.9
			c-0.1,9.8-1.5,11.2-11.2,13.4c-3.2,0.7-6.3,0.6-9.5,0.6c-24,0-48,0-72,0c-2.6,0-5.1-0.1-7.7,0.2c-4.7,0.6-7.4,3.4-7.7,8.3
			c-0.1,1.9-0.1,3.8-0.1,5.8c0,39.4,0,78.7,0,118.1c0,1.9-0.1,3.9,0.1,5.8c0.6,5.4,2.5,7.8,7.8,7.7c17.2-0.3,34.5,1.2,51.7-0.9
			c6.6-0.8,13.4-0.4,20.1-0.2c6.4,0.2,9.2,2.9,10.3,9.1c0.3,1.6,0.2,3.2,0.3,4.8c2.4,25.5,0.8,51,0.2,76.5
			c-0.1,3.8-0.1,7.7-0.3,11.5c-0.4,6.9-2.5,9.2-9.4,9.3c-6.4,0.1-12.8-0.5-19.2-0.5c-16.6,0.1-33.3,0.3-49.9,0.6
			c-8.3,0.1-10.8,2.6-11.7,10.7c-0.1,0.6-0.1,1.3-0.1,1.9c0.6,22.7-2.6,45.4-1.2,68c2.6,43.2,0.5,86.3,1.2,129.5
			c0,2.2,0.1,4.5,0,6.7c-0.6,8.3-2.7,10.8-11,11.6c-23.5,2.2-47,5-70.6,2.1c-5.4-0.7-10.9-0.4-16.3-0.7c-12-0.7-13.4-2.2-13.4-14.6
			c0-34.6,0-69.1,0-103.7C526,1795.9,526,1739,526,1682z"/>
		<path class="st0" d="M1142.5,1685.3c0,88.7,0,177.3,0,266c0,2.9,0.2,5.8-0.1,8.6c-0.9,10.8-5.8,16.1-16.7,17.6
			c-16.5,2.2-33.1,2-49.7,0.3c-6-0.6-12.1-0.5-18.2-0.9c-10.6-0.7-16.2-6.3-17.1-17c-0.2-2.5-0.1-5.1-0.1-7.7
			c0-49-0.4-97.9,0.1-146.9c1.2-130.9,0.2-261.8,0.6-392.7c0-1.9-0.1-3.8,0-5.8c0.8-11.8,4.2-14.7,15.9-15.1c23-0.7,46,1.2,69,1.4
			c8.9,0.1,12.4,3.3,15,11.9c1.3,4.4,1.2,8.8,1.2,13.3C1142.5,1507.4,1142.5,1596.3,1142.5,1685.3z"/>
		<path class="st0" d="M651.4,1147.6c1.4,1,2,1.7,2.8,2c19.2,7.4,30.1,21.9,35.1,41.4c2.8,10.8,5,21.8,5.5,33
			c0.9,20.1,2.4,40.2,2.1,60.3c-0.3,14.1,1.2,28,3.7,41.9c2.3,12.5,0.3,14.6-12.1,15.1c-15.7,0.7-31.3-1.6-46.9-1.3
			c-4.6,0.1-7.2-2-8-6.5c-0.6-3.1-1.2-6.2-1.4-9.4c-1.3-22.3-1.9-44.7-2-67c0-16.3-0.3-32.6-4.1-48.6c-1.5-6.6-3.2-13.1-7-18.7
			c-3.4-5-7.8-8.5-14-9.1c-5.9-0.6-8.3,1.2-9.2,7.1c-0.4,2.8-0.2,5.7-0.2,8.6c0,40,0,80,0,120c0,4.8-0.3,9.6-0.8,14.4
			c-0.4,4.5-3.1,6.7-7.5,7.3c-14.3,1.8-28.7,1.6-43.1,1.3c-7.4-0.2-10.1-3.2-10.7-10.8c-0.2-2.5-0.1-5.1-0.1-7.7
			c0-121,0-241.9,0-362.9c0-15.2,0.4-15.4,15.7-15.6c20.8-0.2,41.6,0.3,62.4-0.5c18.1-0.7,35.7,2,52,10.6c5.7,3,10.9,6.7,15.3,11.4
			c7,7.5,11,16,10.9,26.7c-0.3,32.3-0.1,64.6-0.1,97c0,26.8-11.9,46.4-36.2,58.2C653.1,1146,652.7,1146.5,651.4,1147.6z M599,1055.7
			c0,4.2,0,8.3,0,12.5c0,10.9,0,21.7,0,32.6c0,4.5,1.2,8.3,6,9.8c6.5,2,14.9-1.4,18.2-7.4c1.7-3.1,2.7-6.4,3.4-9.9
			c4.2-22.7,4.3-45.6,3.3-68.6c-0.1-2.2-0.7-4.4-1.4-6.5c-3.5-11.5-9.5-15.4-21.4-14.2c-7.4,0.8-8.1,1.2-8.1,8.8
			C598.9,1026.9,599,1041.3,599,1055.7z"/>
		<path class="st0" d="M871.7,1144.6c0,40.6,0,81.2,0,121.9c0,10.6-1.7,21-4.8,31.1c-7.3,23.5-23.4,37.9-47,43.1
			c-20.2,4.4-40.5,4.3-60.5-2.3c-18.1-6-29.5-18.3-35.1-36.3c-3.9-12.6-5.4-25.7-5.5-38.7c-0.2-76.4-0.4-152.9,0.1-229.3
			c0.1-19.1,2.1-38.2,10.5-56c8.9-18.9,23.7-29.7,43.8-33.4c15.2-2.8,30.4-2.2,45.6,0.4c27.2,4.6,42.7,21.4,48.9,47.5
			c2.5,10.5,4,21.3,4,32.2C871.7,1064.7,871.7,1104.7,871.7,1144.6z M809,1139.9c0-33.6,0-67.2,0-100.8c0-6.5-0.8-12.8-4.1-18.5
			c-3.6-6.1-9.9-7.3-15.4-2.9c-2.8,2.2-4.9,4.9-5.8,8.6c-1.4,5.6-2.2,11.3-2.2,17c0,65.9,0,131.9,0.1,197.8c0,4.5,0.3,9,1.2,13.3
			c1.4,6.3,6.2,9.7,12.5,9.9c4.7,0.1,9.5-3.3,11.7-8.5c2-4.8,2.1-9.9,2.1-15.1C808.9,1207.1,809,1173.5,809,1139.9z"/>
		<path class="st0" d="M1289.4,1054.4c2.9-3.9,2.7-8.5,3.8-12.8c7.6-29.4,15.2-58.7,22.8-88.1c2.4-9,3.5-9.4,13.4-9.4
			c14.4,0.1,28.8-0.4,43.2-0.5c15.6-0.1,18,3.5,11.6,17.4c-20,43.5-38.2,87.9-56,132.4c-8.3,20.8-8.3,20.8-1.3,41.9
			c21,63.1,43,125.7,65.1,188.4c4.5,12.7,3.8,13.7-9.5,13.7c-17.3,0-34.6,0-51.8,0c-10.9,0-11.6-0.4-14.4-11.1
			c-7.3-28.1-14.5-56.3-21.7-84.4c-1.6-6.4-3.3-12.8-5-19.2c-0.6,0-1.3,0.1-1.9,0.1c-0.4,8-1.1,16-1.1,23.9
			c0.2,26.2-0.8,52.5,0.5,78.7c0.1,2.2,0,4.5-0.4,6.7c-0.5,3.2-2.5,5.1-5.9,5.1c-15.7,0-31.4,0-47,0c-4.3,0-6.5-2.3-6.7-6.5
			c-0.1-2.6-0.1-5.1-0.1-7.7c0-121.9,0-243.8,0-365.7c0-0.6,0-1.3,0-1.9c0.1-11.3,0.6-11.9,11.9-11.9c13.4,0,26.9-0.1,40.3,0
			c9.2,0.1,10.1,1.3,10,10.7c-0.3,19.2-0.8,38.4-0.6,57.6c0.1,11.5-1,22.9-1.3,34.4C1287.2,1049.1,1286.2,1052.2,1289.4,1054.4z"/>
		<path class="st0" d="M372.3,1141.9c0-61.7,0-123.5,0-185.2c0-12.2,0.6-13,13-12.9c21.4,0.1,42.9-0.3,64.3,0.8
			c25.3,1.3,46.9,11.5,63.5,31c7.5,8.8,10.9,19.5,10.9,31c0.1,39,0.3,78.1-0.1,117.1c-0.2,24.8-12,43.2-33.4,55.5
			c-13.2,7.6-27.3,12.1-42.7,12.4c-8.5,0.2-10,1.9-10.1,10.3c-0.1,10.6-0.3,21.1,0,31.7c0.8,31.6-1.5,63.2-1.4,94.9
			c0,8.6-2,10.8-10.8,10.9c-13.4,0.2-26.9,0.1-40.3,0c-2.2,0-4.4-0.9-6.6-1.1c-4.5-0.4-5.7-3.1-5.7-7.2c0-7.3-0.6-14.7-0.6-22
			C372.3,1253.2,372.3,1197.6,372.3,1141.9z M433.8,1064.2c0,15.6,0,31.3,0,46.9c0,2.2,0,4.5,0.1,6.7c0.1,3.9,2.4,5.7,6,6.3
			c9.9,1.5,18.4-4.1,21.1-13.7c1-3.4,1.7-6.8,2.2-10.3c2.9-21.6,2.5-43.3,1.2-64.9c-0.4-6.9-1.4-13.9-4.7-20.3
			c-2.2-4.4-5.2-7.1-10.3-7.1c-2.2,0-4.4-0.4-6.7-0.5c-8.1-0.4-8.8,0.1-8.9,8.2C433.7,1031.6,433.8,1047.9,433.8,1064.2z"/>
		<path class="st0" d="M1077.2,1139.4c0-60.2,0-120.3,0-180.5c0-2.6-0.1-5.1,0-7.7c0.3-6,1.4-7.2,7.4-7.5c5.4-0.3,10.9-0.1,16.3-0.1
			c32.9,0.2,65.9,0.4,98.8,0.6c10.7,0.1,11.8,1.1,11.8,11.3c0.1,15.4,0.1,30.7,0,46.1c-0.1,9.3-0.5,9.7-9.8,9.8
			c-13.8,0.1-27.5,0-41.3,0c-2.2,0-4.5-0.1-6.7,0.1c-7.6,0.6-8.6,1.5-10,8.8c-0.2,1.2-0.6,2.5-0.6,3.8c0,21.8-0.1,43.5,0,65.3
			c0,6.1,1.9,7.8,8.1,8.4c11.7,1.1,23.5,2.6,35.2,0.2c2.1-0.4,4.5-0.2,6.7,0.1c4.3,0.6,7,2.9,6.9,7.7c-0.4,12.4,0.7,24.9-0.7,37.3
			c-0.9,7.6-0.4,15.3-0.5,23c-0.2,9.6-1,10.4-10.4,10.5c-11.2,0.1-22.4-0.1-33.6,0c-8.1,0.1-9.1,1.1-10.4,9.1
			c-2.2,13-1.2,26.1-1.7,39.2c-0.4,9.9,0.3,19.8,0.5,29.7c0.2,8.2,2,10.2,10.2,10.3c14.4,0.2,28.8,0,43.2,0.1c2.2,0,4.5-0.1,6.7,0.1
			c7.3,0.7,8.8,2.3,9,9.5c0.1,7.4,0.3,14.7,0,22.1c-0.4,9.3,1.2,18.5,1.3,27.7c0.1,11.6-1.3,13.4-13.2,13.5
			c-17.9,0.1-35.7,1.7-53.6,1.6c-19.5-0.1-38.9-1.8-58.4-2.2c-9.5-0.2-11.1-2.2-11.1-12.6C1077.2,1263,1077.2,1201.2,1077.2,1139.4z
			"/>
		<path class="st0" d="M996.5,1096.8c0-43.5,0-87,0-130.5c0-2.2-0.1-4.5,0-6.7c0.4-7.2,3.1-10.3,10-10c14.1,0.6,28.1,0.6,42.2,0
			c7.6-0.3,9.9,2,9.8,9.5c-0.1,15.6,0.5,31.2,0.3,46.8c-0.6,54.4-0.2,108.8-0.2,163.1c0,24.3,0.2,48.6-0.8,72.9
			c-1.1,28.7-10.5,54.5-30.1,75.8c-17.2,18.7-39.2,24.3-63.7,21c-39.3-5.3-69.5-37.2-70.5-82.7c-0.5-22.1-0.5-44.1-0.7-66.2
			c0-1.9-0.1-3.8,0-5.8c0.5-9.4,3-11.8,12.6-11.1c5.4,0.4,10.7,1.5,16.2,1.2c6.7-0.4,13.3-1.1,20-1.2c8-0.1,10,1.7,11.3,9.7
			c2.4,14.9,1.2,29.9,0.8,44.9c-0.3,12.4,0.5,24.6,5.8,36.3c5.3,11.8,22.4,10.8,28.1,2.8c3.4-4.8,5.8-10,6.7-15.7
			c1.1-7.2,2.3-14.5,2.2-21.9C996.5,1185.1,996.5,1140.9,996.5,1096.8z"/>
		<path class="st0" d="M1461.4,1173.5c0-49.3,0-98.6,0-147.9c0-1.9,0-3.8,0-5.8c-0.2-9.1-1.3-10.2-10.8-10.3
			c-9.6-0.1-19.2,0.1-28.8-0.1c-8.2-0.2-10.3-1.7-10.1-9.3c0.3-13.7-3.2-27.3-0.1-41c0.6-2.8,1.1-5.6,1.8-8.4c1.3-4.5,4.4-6.9,9.1-7
			c2.2-0.1,4.5-0.1,6.7-0.1c44.8,0,89.6,0,134.4,0c1.6,0,3.2-0.1,4.8,0c7.4,0.4,8.4,1.1,8.5,8.4c0.2,17-0.1,33.9,0.1,50.9
			c0.1,5.1-2,6.7-6.9,6.6c-9.6-0.2-19.2-0.1-28.8,0c-11.1,0.1-12.8,1.8-12.8,12.8c0.2,84.5,0.4,169,0.6,253.4
			c0,17.3,0.1,34.6,0,51.8c0,9.4-1.8,11.1-11.1,11.5c-16,0.7-31.9,0.5-47.8-1.3c-6.5-0.7-7.8-1.8-8.3-8.1c-0.1-1.3,0-2.6,0-3.8
			c0-50.9,0-101.8,0-152.6C1461.8,1173.5,1461.6,1173.5,1461.4,1173.5z"/>
		<path class="st0" d="M1412,1779.7c-0.8-16-1.6-30.1-4-43.9c-2.7-15.8-6.8-31.2-13.8-45.8c-6.1-12.6-14.1-23.5-26.3-31
			c-8-5-9.3-10-6.1-18.8c2.1-5.8,5.5-10.8,9.4-15.5c13.6-16.8,30.2-30.3,47.2-43.4c3.1-2.4,5.5-2.1,8.5,0
			c10.9,7.4,21.2,15.5,30.1,25.2c10.2,11.2,14.1,23.5,9.8,38.8c-7.8,28.1-17.1,55.6-27.6,82.7c-5.4,14-11,28-18.1,41.2
			C1419.1,1772.7,1417.4,1776.5,1412,1779.7z"/>
	</g>
</g>
</svg>
